<?xml version="1.0" standalone="no"?>
<!DOCTYPE svg PUBLIC "-//W3C//DTD SVG 20010904//EN"
 "http://www.w3.org/TR/2001/REC-SVG-20010904/DTD/svg10.dtd">
<svg version="1.0" xmlns="http://www.w3.org/2000/svg"
 width="500.000000pt" height="500.000000pt" viewBox="0 0 500.000000 500.000000"
 preserveAspectRatio="xMidYMid meet">

<g transform="translate(0.000000,500.000000) scale(0.100000,-0.100000)"
fill="#000000" stroke="none">
<path d="M2368 3713 c6 -2 18 -2 25 0 6 3 1 5 -13 5 -14 0 -19 -2 -12 -5z"/>
<path d="M2588 3713 c6 -2 18 -2 25 0 6 3 1 5 -13 5 -14 0 -19 -2 -12 -5z"/>
<path d="M2308 3703 c7 -3 16 -2 19 1 4 3 -2 6 -13 5 -11 0 -14 -3 -6 -6z"/>
<path d="M2658 3703 c7 -3 16 -2 19 1 4 3 -2 6 -13 5 -11 0 -14 -3 -6 -6z"/>
<path d="M3754 3658 l-29 -33 33 29 c30 28 37 36 29 36 -2 0 -16 -15 -33 -32z"/>
<path d="M3632 3580 c-13 -12 -22 -33 -22 -50 0 -28 22 -60 41 -60 5 0 9 -133
9 -328 0 -341 -1 -352 -42 -352 -16 0 -18 11 -18 116 0 63 -5 124 -10 135 -28
52 -110 60 -161 16 l-26 -23 13 -90 c20 -143 17 -274 -11 -441 -7 -38 -5 -45
23 -73 42 -42 101 -42 143 -1 l29 29 0 136 0 136 45 22 45 22 0 341 0 342 25
23 c31 29 33 72 5 100 -26 26 -60 25 -88 0z m86 -12 c7 -7 12 -24 12 -38 0
-35 -17 -50 -57 -50 -26 0 -36 6 -45 25 -18 40 3 75 45 75 18 0 38 -5 45 -12z"/>
<path d="M1879 3503 c-13 -16 -12 -17 4 -4 9 7 17 15 17 17 0 8 -8 3 -21 -13z"/>
<path d="M3155 3440 c38 -38 72 -70 74 -70 3 0 -26 32 -64 70 -38 39 -72 70
-74 70 -3 0 26 -31 64 -70z"/>
<path d="M1809 3443 l-24 -28 28 24 c25 23 32 31 24 31 -2 0 -14 -12 -28 -27z"/>
<path d="M1744 3368 l-19 -23 23 19 c21 18 27 26 19 26 -2 0 -12 -10 -23 -22z"/>
<path d="M2159 3365 c-334 -47 -485 -163 -529 -402 -18 -100 -15 -337 5 -418
63 -256 278 -461 560 -534 404 -105 818 8 1024 278 102 134 141 267 141 473
-1 378 -111 515 -470 590 -126 26 -583 35 -731 13z m972 -234 c21 -22 29 -39
29 -66 0 -51 -44 -95 -95 -95 -49 0 -95 44 -95 92 0 87 100 130 161 69z m-627
-70 c20 -21 12 -50 -26 -97 -17 -20 -25 -43 -26 -74 -1 -40 0 -42 9 -20 6 14
8 33 5 44 -3 13 7 33 29 58 19 21 35 46 35 56 0 11 11 24 25 30 29 13 99 15
130 3 16 -7 15 -9 -13 -14 -23 -5 -37 -17 -54 -48 -13 -23 -29 -51 -35 -63 -7
-11 -12 -34 -12 -51 1 -29 1 -28 10 7 10 45 64 134 85 142 22 8 103 -3 133
-19 68 -35 191 -205 228 -315 17 -51 16 -175 -2 -210 -19 -36 -51 -59 -75 -53
-10 3 -21 0 -24 -6 -13 -21 -32 -11 -49 25 -15 30 -15 39 -5 52 11 13 8 13
-19 -1 -65 -34 -80 -23 -84 66 -3 41 2 54 32 95 36 47 63 92 56 92 -2 0 -18
-20 -35 -44 l-31 -43 -88 2 c-55 1 -96 7 -110 15 -19 12 -26 12 -55 -3 -35
-17 -173 -41 -188 -32 -5 3 -8 14 -7 25 1 17 6 19 34 14 24 -4 47 1 90 22 66
33 137 37 178 10 28 -19 44 -21 28 -5 -9 9 -4 19 18 41 16 16 29 35 29 41 0 7
-11 -1 -24 -18 -23 -29 -28 -30 -103 -30 -60 0 -88 -5 -122 -23 -25 -12 -62
-22 -83 -22 l-38 0 0 46 c0 25 3 43 8 41 9 -6 10 99 0 108 -9 10 1 34 30 74
27 36 39 91 21 91 -5 0 -8 -4 -4 -9 9 -15 -13 -23 -73 -26 -32 -1 -73 -10 -92
-19 -19 -9 -26 -13 -15 -9 11 3 55 8 97 11 l78 4 -33 -56 c-17 -30 -37 -55
-42 -56 -20 0 -35 24 -36 55 0 28 -1 29 -10 7 l-9 -23 -35 28 c-19 15 -35 31
-35 35 0 15 87 51 140 58 104 14 146 11 164 -9z m36 9 c0 -5 -4 -10 -9 -10 -6
0 -13 5 -16 10 -3 6 1 10 9 10 9 0 16 -4 16 -10z m-393 -100 c-19 -16 -40 -43
-47 -60 -7 -16 -18 -30 -25 -30 -7 0 -29 -12 -50 -26 l-38 -25 31 38 c54 68
129 132 155 133 4 0 -8 -13 -26 -30z m89 -16 c41 -32 42 -37 9 -58 -25 -17
-27 -16 -57 16 -26 28 -29 29 -18 8 7 -14 19 -32 27 -42 13 -14 12 -19 -8 -37
-13 -12 -28 -21 -35 -21 -7 0 -15 -4 -18 -9 -3 -4 5 -6 18 -4 13 3 44 25 69
49 48 45 68 48 94 15 14 -17 15 -101 3 -141 l-7 -25 -12 28 c-6 16 -11 40 -11
55 -1 15 -8 38 -16 52 -9 14 -13 17 -10 7 8 -25 14 -54 20 -103 8 -55 -13 -64
-66 -29 -37 25 -88 48 -88 41 0 -2 25 -19 55 -37 30 -18 55 -36 55 -39 0 -3
-15 -21 -34 -39 l-34 -33 -34 23 c-18 12 -35 24 -37 25 -2 2 -7 24 -12 51 -5
26 -14 52 -20 58 -7 7 -7 1 0 -18 6 -16 11 -44 11 -63 0 -29 6 -38 40 -59 46
-29 53 -55 15 -55 -40 0 -78 24 -129 81 -45 50 -47 54 -40 98 9 63 19 81 28
47 3 -14 11 -26 17 -26 6 0 6 -6 -1 -19 -5 -11 -7 -28 -3 -38 6 -15 8 -13 14
12 4 17 10 37 13 47 5 12 2 16 -11 15 -31 -3 -21 35 16 60 18 12 37 21 41 18
4 -2 15 14 25 36 19 42 57 79 82 79 8 0 30 -12 49 -26z m-448 -214 c5 -168 57
-306 149 -401 25 -26 41 -49 35 -53 -15 -9 -107 94 -137 153 -35 70 -61 176
-70 283 -7 81 -3 108 13 108 4 0 8 -41 10 -90z m532 -60 c0 -11 -4 -20 -10
-20 -5 0 -10 -9 -10 -20 0 -22 47 -40 59 -22 6 10 150 36 158 28 3 -2 2 -14
-2 -25 -7 -23 -32 -32 -98 -36 -23 -2 -58 -7 -77 -12 -21 -6 -49 -6 -68 0 -37
9 -56 3 -22 -8 17 -6 20 -12 15 -43 l-6 -37 14 31 c13 27 22 32 73 42 86 17
127 22 249 31 61 5 119 12 131 16 19 6 21 2 23 -49 l2 -56 -43 5 -43 5 45 -13
c38 -11 46 -17 48 -40 4 -32 10 -31 -178 -32 -74 0 -155 -4 -180 -9 -34 -6
-54 -4 -80 7 l-35 16 35 -5 c29 -3 26 -1 -15 12 -27 9 -59 20 -71 24 -26 10
-67 95 -59 121 8 23 111 109 131 109 8 0 14 -9 14 -20z m388 -36 c60 -12 -10
-44 -97 -44 -31 0 -62 4 -70 9 -20 13 -6 41 18 34 10 -3 27 -1 35 4 16 9 65 7
114 -3z m164 -202 l20 -33 -43 7 c-64 8 -69 11 -69 36 0 20 5 23 35 23 29 0
39 -6 57 -33z m-331 -44 c10 -13 18 -30 19 -38 0 -18 19 -40 33 -40 5 0 4 7
-3 15 -6 8 -20 31 -30 51 l-19 37 46 -7 c25 -3 73 -6 105 -6 48 0 59 -3 55
-14 -9 -23 21 -42 43 -28 28 17 100 27 100 14 0 -6 -5 -23 -12 -37 -15 -32
-97 -58 -171 -53 l-52 3 -1 -45 c0 -25 -5 -45 -10 -45 -9 0 -143 194 -144 208
0 15 22 6 41 -15z"/>
<path d="M2700 2999 c89 -28 188 -89 144 -89 -11 0 -32 -9 -48 -19 -22 -15
-34 -17 -56 -9 -36 12 -64 43 -57 63 4 8 2 15 -3 15 -14 0 -23 -41 -12 -52 8
-8 4 -17 -14 -30 -13 -11 -24 -24 -24 -30 0 -5 13 1 30 15 28 24 30 25 73 9
42 -15 45 -15 72 6 15 12 34 22 41 22 25 0 55 -45 76 -113 24 -81 23 -85 -56
-177 -31 -36 -56 -69 -56 -75 1 -9 13 3 73 74 19 24 21 24 28 5 4 -10 8 -44 9
-74 l2 -55 10 38 c8 30 7 47 -5 78 -15 38 -15 42 5 75 19 33 20 39 7 97 -8 34
-13 70 -12 80 6 44 -136 142 -220 152 l-42 5 35 -11z"/>
<path d="M2964 2575 c14 -14 16 -29 12 -74 -5 -49 -4 -52 5 -23 16 51 8 106
-15 110 -19 4 -19 3 -2 -13z"/>
<path d="M2026 2675 c4 -8 11 -15 16 -15 6 0 5 6 -2 15 -7 8 -14 15 -16 15 -2
0 -1 -7 2 -15z"/>
<path d="M2490 2498 c-36 -5 -68 -12 -73 -17 -7 -7 70 1 168 18 49 8 49 8 10
8 -22 0 -69 -4 -105 -9z"/>
<path d="M3280 3290 c6 -11 13 -20 16 -20 2 0 0 9 -6 20 -6 11 -13 20 -16 20
-2 0 0 -9 6 -20z"/>
<path d="M1435 3079 c-54 -31 -55 -32 -55 -341 l0 -286 31 -26 c18 -15 43 -26
60 -26 37 0 84 24 93 47 6 15 9 15 17 3 9 -12 9 -11 4 5 -42 124 -47 400 -11
580 3 17 3 24 0 17 -5 -10 -11 -8 -29 8 -27 25 -82 35 -110 19z"/>
<path d="M1700 2216 c0 -2 8 -10 18 -17 15 -13 16 -12 3 4 -13 16 -21 21 -21
13z"/>
<path d="M3239 2183 c-13 -16 -12 -17 4 -4 16 13 21 21 13 21 -2 0 -10 -8 -17
-17z"/>
<path d="M1750 2155 c13 -14 26 -25 28 -25 3 0 -5 11 -18 25 -13 14 -26 25
-28 25 -3 0 5 -11 18 -25z"/>
<path d="M3184 2118 l-29 -33 33 29 c30 28 37 36 29 36 -2 0 -16 -15 -33 -32z"/>
<path d="M3131 2024 c0 -11 3 -14 6 -6 3 7 2 16 -1 19 -3 4 -6 -2 -5 -13z"/>
<path d="M3131 1984 c0 -11 3 -14 6 -6 3 7 2 16 -1 19 -3 4 -6 -2 -5 -13z"/>
<path d="M1692 1784 c-24 -17 -29 -43 -10 -62 17 -17 1599 -17 1616 0 19 19
14 45 -10 62 -20 14 -112 16 -798 16 -686 0 -778 -2 -798 -16z"/>
<path d="M624 996 c-64 -28 -85 -107 -43 -160 26 -33 50 -43 148 -61 48 -10
83 -22 98 -37 26 -25 29 -12 8 38 -17 41 -78 73 -140 74 -22 0 -57 5 -77 11
-31 8 -38 15 -38 34 0 36 39 57 107 58 32 0 75 -5 96 -12 44 -15 42 -15 51 22
5 23 3 29 -19 37 -38 14 -155 12 -191 -4z"/>
<path d="M870 810 l0 -200 35 0 35 0 0 80 0 80 45 0 c92 0 150 47 150 121 0
89 -45 119 -175 119 l-90 0 0 -200z m151 180 c25 -14 49 -62 49 -99 0 -64 -44
-111 -105 -111 l-25 0 0 110 0 110 31 0 c17 0 39 -5 50 -10z"/>
<path d="M1277 992 c-19 -20 -22 -42 -8 -42 5 0 11 6 14 13 8 23 24 -6 51 -94
14 -48 26 -92 26 -98 0 -7 -22 -11 -56 -11 l-57 0 5 70 c3 39 2 72 -1 75 -4 2
-28 -63 -53 -146 l-45 -149 48 0 49 0 0 70 0 70 60 0 59 0 21 -70 c21 -69 21
-70 55 -70 19 0 35 3 35 6 0 18 -112 369 -121 380 -16 20 -63 17 -82 -4z"/>
<path d="M1591 993 c-56 -28 -85 -84 -89 -172 -3 -64 1 -83 20 -121 32 -62 77
-90 145 -90 49 0 116 21 127 39 3 4 -4 17 -13 30 -18 23 -19 23 -42 7 -13 -9
-43 -16 -67 -16 -36 0 -50 6 -77 33 -51 51 -69 144 -43 228 17 59 81 69 150
24 46 -30 50 -31 67 -3 12 19 11 24 -9 40 -29 23 -122 24 -169 1z"/>
<path d="M1880 1003 c-31 -12 -60 -47 -60 -75 0 -34 29 -55 107 -74 71 -18
113 -34 113 -44 0 -17 -15 -17 -63 -3 -96 28 -167 1 -167 -64 0 -85 65 -132
182 -133 58 0 69 3 82 22 29 40 21 44 -76 40 -116 -4 -163 14 -163 63 0 25 4
30 28 33 16 2 49 -4 74 -12 83 -29 143 -16 143 29 0 29 -28 49 -90 65 -98 24
-128 47 -109 82 15 26 69 32 139 14 35 -9 65 -15 67 -12 2 2 5 16 6 32 2 22
-3 29 -23 35 -29 8 -168 10 -190 2z"/>
<path d="M2290 810 l0 -200 125 0 125 0 0 31 c0 26 -3 30 -17 24 -51 -22 -121
-44 -140 -45 l-23 0 0 195 0 195 -35 0 -35 0 0 -200z"/>
<path d="M2630 1003 c-26 -10 -60 -46 -60 -64 0 -49 25 -67 138 -94 41 -10 76
-24 79 -32 9 -22 -1 -24 -47 -8 -54 19 -103 19 -140 0 -71 -37 -39 -150 53
-184 16 -6 57 -11 92 -11 55 0 66 3 79 22 29 40 21 44 -76 40 -116 -4 -163 14
-163 63 0 27 4 30 33 33 19 2 52 -4 73 -12 73 -30 139 -16 139 29 0 29 -28 49
-90 65 -98 24 -128 47 -109 82 15 26 69 32 139 14 35 -9 65 -15 67 -12 2 2 5
16 6 32 2 22 -3 29 -23 35 -29 8 -168 10 -190 2z"/>
<path d="M2982 998 c-17 -22 -24 -58 -12 -58 6 0 9 4 6 9 -6 8 23 25 30 18 4
-3 64 -196 64 -203 0 -2 -27 -4 -61 -4 l-61 0 7 65 c5 39 4 65 -2 65 -8 0 -49
-123 -89 -262 -5 -15 2 -18 40 -18 l46 0 0 70 0 70 64 0 63 0 18 -66 c18 -68
27 -78 68 -72 l25 3 -55 180 c-30 99 -62 188 -70 198 -19 20 -66 23 -81 5z"/>
<path d="M3220 810 l0 -200 30 0 30 0 0 195 0 195 54 0 c66 0 86 -16 86 -70 0
-30 -7 -46 -31 -69 -17 -17 -35 -31 -40 -31 -5 0 -18 -9 -29 -20 l-20 -20 21
-43 c12 -23 37 -63 56 -89 32 -45 38 -48 79 -48 l44 0 -42 53 c-40 48 -98 138
-98 151 0 3 19 15 43 27 64 32 87 58 87 96 0 62 -24 73 -155 73 l-115 0 0
-200z"/>
<path d="M3530 979 c0 -16 4 -28 9 -25 5 3 39 -53 77 -125 79 -152 132 -219
172 -219 l27 0 3 200 3 200 -47 0 c-40 0 -45 -2 -38 -17 35 -80 56 -166 61
-247 l5 -91 -36 49 c-20 28 -62 100 -92 160 -67 132 -78 146 -116 146 -25 0
-28 -4 -28 -31z"/>
<path d="M3903 991 c-42 -26 -50 -56 -26 -90 15 -19 42 -32 106 -51 48 -14 91
-30 98 -36 19 -20 -7 -25 -51 -9 -51 18 -100 19 -134 4 -29 -14 -41 -38 -26
-53 7 -7 10 -6 10 2 0 17 59 15 110 -3 57 -20 103 -19 123 3 36 40 13 64 -98
97 -62 19 -86 31 -90 46 -15 48 50 69 141 46 62 -16 74 -12 74 26 0 25 -40 37
-128 37 -58 0 -85 -5 -109 -19z"/>
<path d="M4170 810 l0 -200 35 0 35 0 0 195 0 195 54 0 c65 0 86 -16 86 -67 0
-28 -8 -43 -38 -72 -22 -20 -50 -43 -63 -53 l-24 -16 25 -47 c13 -26 39 -67
58 -91 30 -41 36 -44 78 -44 l46 0 -39 44 c-51 58 -106 152 -98 166 4 6 24 18
46 27 73 29 102 100 59 143 -18 18 -33 20 -140 20 l-120 0 0 -200z"/>
<path d="M3537 920 c-4 -14 -7 -89 -7 -167 l0 -143 45 0 45 0 -16 38 c-31 70
-45 127 -52 212 -5 60 -10 78 -15 60z"/>
<path d="M2950 921 c0 -6 4 -13 10 -16 6 -3 7 1 4 9 -7 18 -14 21 -14 7z"/>
<path d="M3860 706 c0 -23 42 -68 76 -82 35 -15 151 -19 171 -6 6 4 16 19 21
32 l10 25 -103 0 c-91 0 -107 3 -134 23 -35 26 -41 27 -41 8z"/>
<path d="M561 678 c-11 -29 -6 -37 35 -54 77 -32 200 -8 232 46 18 30 9 35
-24 13 -36 -23 -127 -24 -173 0 -45 23 -60 21 -70 -5z"/>
</g>
</svg>
